# MagicaVoxel @ Ephtracy

# group
g CuboDoor

# material
mtllib CuboDoor.mtl
usemtl palette

# normals
vn -1 0 0
vn 1 0 0
vn 0 0 1
vn 0 0 -1
vn 0 -1 0
vn 0 1 0

# texcoords
vt 0.126953 0.5
vt 0.130859 0.5

# verts
v -6 0 14
v -6 0 6
v -6 1 14
v -6 1 6
v -6 7 14
v -6 7 6
v -6 8 14
v -6 8 6
v -6 13 6
v -6 13 -2
v -6 14 6
v -6 14 -2
v -6 21 14
v -6 21 6
v -6 22 14
v -6 22 6
v -6 28 14
v -6 28 -2
v -6 29 14
v -6 29 -2
v 2 0 6
v 2 0 -2
v 2 1 6
v 2 1 -2
v 2 7 6
v 2 7 -2
v 2 8 14
v 2 8 6
v 2 8 -2
v 2 13 6
v 2 14 6
v 2 15 14
v 2 15 6
v 2 16 14
v 2 16 6
v 2 13 6
v 2 13 -2
v 2 14 6
v 2 14 -2
v 2 15 6
v 2 16 6
v 2 21 14
v 2 21 6
v 2 21 -2
v 2 22 14
v 2 22 6
v 2 28 14
v 2 28 6
v 2 29 14
v 2 29 6
v 10 0 14
v 10 0 -2
v 10 1 14
v 10 1 -2
v 10 7 6
v 10 7 -2
v 10 8 6
v 10 8 -2
v 10 15 14
v 10 15 6
v 10 16 14
v 10 16 6
v 10 21 6
v 10 21 -2
v 10 22 6
v 10 22 -2
v 10 28 6
v 10 28 -2
v 10 29 6
v 10 29 -2
v -6 0 14
v -6 1 14
v -6 7 14
v -6 8 14
v -6 21 14
v -6 22 14
v -6 28 14
v -6 29 14
v 2 7 14
v 2 8 14
v 2 15 14
v 2 16 14
v 2 21 14
v 2 22 14
v 2 28 14
v 2 29 14
v 10 0 14
v 10 1 14
v 10 15 14
v 10 16 14
v -6 13 6
v -6 14 6
v -6 21 6
v 2 13 6
v 2 14 6
v 2 15 6
v 2 16 6
v 2 21 6
v 2 22 6
v 2 28 6
v 2 29 6
v 10 21 6
v 10 22 6
v 10 28 6
v 10 29 6
v -6 0 6
v -6 1 6
v -6 7 6
v -6 8 6
v 2 0 6
v 2 1 6
v 2 7 6
v 2 8 6
v 2 13 6
v 2 14 6
v 2 15 6
v 2 16 6
v 10 8 6
v 10 15 6
v 10 16 6
v -6 13 -2
v -6 14 -2
v -6 28 -2
v -6 29 -2
v 2 0 -2
v 2 1 -2
v 2 7 -2
v 2 8 -2
v 2 13 -2
v 2 14 -2
v 2 21 -2
v 2 22 -2
v 10 0 -2
v 10 1 -2
v 10 7 -2
v 10 8 -2
v 10 21 -2
v 10 22 -2
v 10 28 -2
v 10 29 -2
v -6 0 14
v 10 0 14
v -5 0 13
v 9 0 13
v -5 0 7
v 3 0 7
v -6 0 6
v 2 0 6
v 3 0 -1
v 9 0 -1
v 2 0 -2
v 10 0 -2
v -6 13 6
v 2 13 6
v -5 13 5
v 1 13 5
v -5 13 -1
v 1 13 -1
v -6 13 -2
v 2 13 -2
v -6 21 14
v 2 21 14
v -5 21 13
v 1 21 13
v -5 21 7
v 1 21 7
v -6 21 6
v 2 21 6
v 10 21 6
v 3 21 5
v 9 21 5
v 3 21 -1
v 9 21 -1
v 2 21 -2
v 10 21 -2
v -6 8 14
v 2 8 14
v -5 8 13
v 1 8 13
v -5 8 7
v 1 8 7
v -6 8 6
v 2 8 6
v 10 8 6
v 3 8 5
v 9 8 5
v 3 8 -1
v 9 8 -1
v 2 8 -2
v 10 8 -2
v 2 16 14
v 10 16 14
v 3 16 13
v 9 16 13
v 3 16 7
v 9 16 7
v 2 16 6
v 10 16 6
v -6 29 14
v 2 29 14
v -5 29 13
v 1 29 13
v 2 29 6
v 10 29 6
v 1 29 5
v 9 29 5
v -5 29 -1
v 9 29 -1
v -6 29 -2
v 10 29 -2

# faces
f 3/2/1 2/2/1 1/2/1
f 4/2/1 2/2/1 3/2/1
f 5/1/1 4/1/1 3/1/1
f 6/1/1 4/1/1 5/1/1
f 7/2/1 6/2/1 5/2/1
f 8/2/1 6/2/1 7/2/1
f 11/2/1 10/2/1 9/2/1
f 12/2/1 10/2/1 11/2/1
f 14/1/1 12/1/1 11/1/1
f 15/2/1 14/2/1 13/2/1
f 16/1/1 12/1/1 14/1/1
f 16/2/1 14/2/1 15/2/1
f 17/1/1 16/1/1 15/1/1
f 18/1/1 12/1/1 16/1/1
f 18/1/1 16/1/1 17/1/1
f 19/2/1 18/2/1 17/2/1
f 20/2/1 18/2/1 19/2/1
f 23/2/1 22/2/1 21/2/1
f 24/2/1 22/2/1 23/2/1
f 25/1/1 24/1/1 23/1/1
f 26/1/1 24/1/1 25/1/1
f 28/2/1 26/2/1 25/2/1
f 29/2/1 26/2/1 28/2/1
f 30/1/1 28/1/1 27/1/1
f 31/1/1 30/1/1 27/1/1
f 32/1/1 31/1/1 27/1/1
f 33/1/1 31/1/1 32/1/1
f 34/2/1 33/2/1 32/2/1
f 35/2/1 33/2/1 34/2/1
f 36/2/2 37/2/2 38/2/2
f 38/2/2 37/2/2 39/2/2
f 38/1/2 39/1/2 40/1/2
f 40/1/2 39/1/2 41/1/2
f 41/1/2 39/1/2 43/1/2
f 43/1/2 39/1/2 44/1/2
f 42/2/2 43/2/2 45/2/2
f 45/2/2 43/2/2 46/2/2
f 45/1/2 46/1/2 47/1/2
f 47/1/2 46/1/2 48/1/2
f 47/2/2 48/2/2 49/2/2
f 49/2/2 48/2/2 50/2/2
f 51/2/2 52/2/2 53/2/2
f 53/2/2 52/2/2 54/2/2
f 53/1/2 54/1/2 55/1/2
f 55/1/2 54/1/2 56/1/2
f 53/1/2 55/1/2 57/1/2
f 55/2/2 56/2/2 57/2/2
f 57/2/2 56/2/2 58/2/2
f 53/1/2 57/1/2 59/1/2
f 59/1/2 57/1/2 60/1/2
f 59/2/2 60/2/2 61/2/2
f 61/2/2 60/2/2 62/2/2
f 63/2/2 64/2/2 65/2/2
f 65/2/2 64/2/2 66/2/2
f 65/1/2 66/1/2 67/1/2
f 67/1/2 66/1/2 68/1/2
f 67/2/2 68/2/2 69/2/2
f 69/2/2 68/2/2 70/2/2
f 79/1/3 73/1/3 72/1/3
f 79/2/3 74/2/3 73/2/3
f 80/2/3 74/2/3 79/2/3
f 83/2/3 76/2/3 75/2/3
f 84/1/3 77/1/3 76/1/3
f 84/2/3 76/2/3 83/2/3
f 85/2/3 78/2/3 77/2/3
f 85/1/3 77/1/3 84/1/3
f 86/2/3 78/2/3 85/2/3
f 87/2/3 72/2/3 71/2/3
f 88/1/3 81/1/3 80/1/3
f 88/2/3 72/2/3 87/2/3
f 88/1/3 79/1/3 72/1/3
f 88/1/3 80/1/3 79/1/3
f 89/2/3 82/2/3 81/2/3
f 89/1/3 81/1/3 88/1/3
f 90/2/3 82/2/3 89/2/3
f 94/2/3 92/2/3 91/2/3
f 95/1/3 93/1/3 92/1/3
f 95/2/3 92/2/3 94/2/3
f 96/1/3 93/1/3 95/1/3
f 97/1/3 93/1/3 96/1/3
f 98/1/3 93/1/3 97/1/3
f 102/2/3 99/2/3 98/2/3
f 103/1/3 100/1/3 99/1/3
f 103/2/3 99/2/3 102/2/3
f 104/2/3 101/2/3 100/2/3
f 104/1/3 100/1/3 103/1/3
f 105/2/3 101/2/3 104/2/3
f 106/2/4 107/2/4 110/2/4
f 107/1/4 108/1/4 111/1/4
f 110/2/4 107/2/4 111/2/4
f 108/2/4 109/2/4 112/2/4
f 111/1/4 108/1/4 112/1/4
f 112/2/4 109/2/4 113/2/4
f 115/1/4 116/1/4 118/1/4
f 114/1/4 115/1/4 118/1/4
f 113/1/4 114/1/4 118/1/4
f 116/2/4 117/2/4 119/2/4
f 118/1/4 116/1/4 119/1/4
f 119/2/4 117/2/4 120/2/4
f 121/2/4 122/2/4 129/2/4
f 122/1/4 123/1/4 130/1/4
f 129/2/4 122/2/4 130/2/4
f 130/1/4 123/1/4 131/1/4
f 131/1/4 123/1/4 132/1/4
f 125/2/4 126/2/4 133/2/4
f 126/1/4 127/1/4 134/1/4
f 133/2/4 126/2/4 134/2/4
f 127/2/4 128/2/4 135/2/4
f 134/1/4 127/1/4 135/1/4
f 135/2/4 128/2/4 136/2/4
f 131/2/4 132/2/4 137/2/4
f 132/1/4 123/1/4 138/1/4
f 137/2/4 132/2/4 138/2/4
f 123/2/4 124/2/4 139/2/4
f 138/1/4 123/1/4 139/1/4
f 139/2/4 124/2/4 140/2/4
f 143/2/5 142/2/5 141/2/5
f 144/2/5 142/2/5 143/2/5
f 145/2/5 143/2/5 141/2/5
f 145/1/5 144/1/5 143/1/5
f 146/1/5 144/1/5 145/1/5
f 147/2/5 145/2/5 141/2/5
f 147/2/5 146/2/5 145/2/5
f 148/2/5 146/2/5 147/2/5
f 149/1/5 144/1/5 146/1/5
f 149/2/5 146/2/5 148/2/5
f 150/2/5 142/2/5 144/2/5
f 150/1/5 144/1/5 149/1/5
f 151/2/5 149/2/5 148/2/5
f 151/2/5 150/2/5 149/2/5
f 152/2/5 142/2/5 150/2/5
f 152/2/5 150/2/5 151/2/5
f 155/2/5 154/2/5 153/2/5
f 156/2/5 154/2/5 155/2/5
f 157/2/5 155/2/5 153/2/5
f 157/1/5 156/1/5 155/1/5
f 158/2/5 154/2/5 156/2/5
f 158/1/5 156/1/5 157/1/5
f 159/2/5 157/2/5 153/2/5
f 159/2/5 158/2/5 157/2/5
f 160/2/5 154/2/5 158/2/5
f 160/2/5 158/2/5 159/2/5
f 163/2/5 162/2/5 161/2/5
f 164/2/5 162/2/5 163/2/5
f 165/2/5 163/2/5 161/2/5
f 165/1/5 164/1/5 163/1/5
f 166/2/5 162/2/5 164/2/5
f 166/1/5 164/1/5 165/1/5
f 167/2/5 165/2/5 161/2/5
f 167/2/5 166/2/5 165/2/5
f 168/2/5 162/2/5 166/2/5
f 168/2/5 166/2/5 167/2/5
f 170/2/5 169/2/5 168/2/5
f 171/2/5 169/2/5 170/2/5
f 172/2/5 170/2/5 168/2/5
f 172/1/5 171/1/5 170/1/5
f 173/2/5 169/2/5 171/2/5
f 173/1/5 171/1/5 172/1/5
f 174/2/5 172/2/5 168/2/5
f 174/2/5 173/2/5 172/2/5
f 175/2/5 169/2/5 173/2/5
f 175/2/5 173/2/5 174/2/5
f 176/2/6 177/2/6 178/2/6
f 178/2/6 177/2/6 179/2/6
f 176/2/6 178/2/6 180/2/6
f 178/1/6 179/1/6 180/1/6
f 179/2/6 177/2/6 181/2/6
f 180/1/6 179/1/6 181/1/6
f 176/2/6 180/2/6 182/2/6
f 180/2/6 181/2/6 182/2/6
f 181/2/6 177/2/6 183/2/6
f 182/2/6 181/2/6 183/2/6
f 183/2/6 184/2/6 185/2/6
f 185/2/6 184/2/6 186/2/6
f 183/2/6 185/2/6 187/2/6
f 185/1/6 186/1/6 187/1/6
f 186/2/6 184/2/6 188/2/6
f 187/1/6 186/1/6 188/1/6
f 183/2/6 187/2/6 189/2/6
f 187/2/6 188/2/6 189/2/6
f 188/2/6 184/2/6 190/2/6
f 189/2/6 188/2/6 190/2/6
f 191/2/6 192/2/6 193/2/6
f 193/2/6 192/2/6 194/2/6
f 191/2/6 193/2/6 195/2/6
f 193/1/6 194/1/6 195/1/6
f 194/2/6 192/2/6 196/2/6
f 195/1/6 194/1/6 196/1/6
f 191/2/6 195/2/6 197/2/6
f 195/2/6 196/2/6 197/2/6
f 196/2/6 192/2/6 198/2/6
f 197/2/6 196/2/6 198/2/6
f 199/2/6 200/2/6 201/2/6
f 201/2/6 200/2/6 202/2/6
f 202/2/6 200/2/6 203/2/6
f 201/1/6 202/1/6 205/1/6
f 203/2/6 204/2/6 205/2/6
f 202/2/6 203/2/6 205/2/6
f 205/2/6 204/2/6 206/2/6
f 199/2/6 201/2/6 207/2/6
f 201/1/6 205/1/6 207/1/6
f 205/1/6 206/1/6 207/1/6
f 206/2/6 204/2/6 208/2/6
f 207/1/6 206/1/6 208/1/6
f 199/2/6 207/2/6 209/2/6
f 207/2/6 208/2/6 209/2/6
f 208/2/6 204/2/6 210/2/6
f 209/2/6 208/2/6 210/2/6
